<?xml version="1.0" encoding="UTF-8"?>
<svg xmlns="http://www.w3.org/2000/svg" xmlns:xlink="http://www.w3.org/1999/xlink" width="12pt" height="12pt" viewBox="0 0 12 12" version="1.1">
<g id="surface1">
<path style=" stroke:none;fill-rule:nonzero;fill:red;fill-opacity:1;" d="M 8.554688 1.042969 C 7.851562 0.347656 7 0 6 0 C 5 0 4.148438 0.347656 3.445312 1.042969 C 2.742188 1.738281 2.390625 2.578125 2.390625 3.5625 C 2.390625 4.15625 2.691406 5.148438 3.292969 6.539062 C 3.894531 7.929688 4.496094 9.195312 5.097656 10.335938 C 5.699219 11.476562 6 12.03125 6 12 C 6.09375 11.828125 6.222656 11.59375 6.386719 11.296875 C 6.550781 11 6.839844 10.441406 7.253906 9.621094 C 7.667969 8.800781 8.03125 8.046875 8.34375 7.359375 C 8.65625 6.671875 8.945312 5.960938 9.210938 5.226562 C 9.476562 4.492188 9.609375 3.9375 9.609375 3.5625 C 9.609375 2.578125 9.257812 1.738281 8.554688 1.042969 Z M 6.773438 4.3125 C 6.554688 4.53125 6.292969 4.640625 5.988281 4.640625 C 5.683594 4.640625 5.421875 4.53125 5.203125 4.3125 C 4.984375 4.09375 4.875 3.832031 4.875 3.527344 C 4.875 3.222656 4.984375 2.964844 5.203125 2.753906 C 5.421875 2.542969 5.683594 2.4375 5.988281 2.4375 C 6.292969 2.4375 6.554688 2.542969 6.773438 2.753906 C 6.992188 2.964844 7.101562 3.222656 7.101562 3.527344 C 7.101562 3.832031 6.992188 4.09375 6.773438 4.3125 Z M 6.773438 4.3125 "/>
</g>
</svg>
